# Blender v2.75 (sub 0) OBJ File: ''
# www.blender.org
mtllib panel2.mtl
o 平面
v -99.905441 50.999985 100.461960
v 100.094559 50.999985 100.461960
v -99.905441 50.999985 -99.538040
v 100.094559 50.999985 -99.538040
vn 0.000000 1.000000 0.000000
usemtl 材质
s off
f 1//1 2//1 4//1 3//1
o 平面.001_平面.003
v -99.905441 -49.000015 100.461960
v 100.094559 -49.000015 100.461960
v -99.905441 -49.000015 -99.538040
v 100.094559 -49.000015 -99.538040
vn 0.000000 1.000000 0.000000
usemtl 材质.006
s off
f 5//2 6//2 8//2 7//2
o 平面.002_平面.004
v -99.905441 0.999983 100.414688
v 100.094559 0.999983 100.414688
v -99.905441 0.999983 -99.585312
v 100.094559 0.999983 -99.585312
vn 0.000000 1.000000 0.000000
usemtl 材质.005
s off
f 9//3 10//3 12//3 11//3
